<svg version="1.1" id="Layer_1" xmlns="http://www.w3.org/2000/svg" xmlns:xlink="http://www.w3.org/1999/xlink" x="0px" y="0px"
	 width="100%" viewBox="0 0 400 400" enable-background="new 0 0 400 400" xml:space="preserve">
<path fill="#FFFFFF" opacity="1.000000" stroke="none" 
	d="
M274.000000,401.000000 
	C182.695053,401.000000 91.890091,401.000000 1.042571,401.000000 
	C1.042571,267.736725 1.042571,134.473419 1.042571,1.105061 
	C134.221558,1.105061 267.443207,1.105061 400.832458,1.105061 
	C400.832458,134.333160 400.832458,267.666565 400.832458,401.000000 
	C358.806824,401.000000 316.653412,401.000000 274.000000,401.000000 
M206.988174,94.995384 
	C206.988174,94.995384 207.000122,95.084984 206.453217,95.285851 
	C206.191574,95.787148 205.929932,96.288445 205.815033,96.802116 
	C205.815033,96.802116 205.701523,96.708298 205.115784,96.925072 
	C204.427444,97.945976 203.739090,98.966888 202.983810,100.003403 
	C202.983810,100.003403 202.996063,100.071030 202.513260,100.260437 
	C202.181534,100.844368 201.849808,101.428299 201.106964,102.360962 
	C201.048508,102.530876 200.990036,102.700798 200.330673,103.112656 
	C200.158539,103.718063 199.986389,104.323479 199.907394,104.937294 
	C199.907394,104.937294 199.869812,104.851662 199.299271,105.137695 
	C198.859070,106.083611 198.418869,107.029533 198.000000,107.997139 
	C198.000000,107.997139 197.974808,107.983955 197.409058,108.381706 
	C185.671936,132.432785 186.717270,156.026550 202.018723,177.888000 
	C217.079666,199.405899 238.596252,208.848846 264.789062,205.765762 
	C271.726929,204.949112 278.344879,201.414368 285.573822,199.130585 
	C286.101074,198.774872 286.628326,198.419174 287.585724,198.048248 
	C287.585724,198.048248 288.000458,197.932938 288.670807,198.111801 
	C289.198029,197.439911 289.725250,196.768021 290.631317,196.165421 
	C290.631317,196.165421 291.000000,196.053955 291.678253,196.267502 
	C293.145355,195.202362 294.612427,194.137238 296.067657,193.055908 
	C296.067657,193.055908 296.089417,193.085205 296.756378,192.967712 
	C299.523041,190.326218 302.289703,187.684738 305.561462,184.920120 
	C305.717133,184.628281 305.872833,184.336441 306.538025,183.858124 
	C306.691254,183.542572 306.844452,183.227020 307.547546,182.706802 
	C307.795624,182.194183 308.043701,181.681549 308.343384,181.159973 
	C308.343384,181.159973 308.392761,181.177292 308.973969,180.857285 
	C311.738617,176.033630 314.503265,171.209976 317.251801,166.315872 
	C317.251801,166.315872 317.212585,166.256058 317.726837,166.052521 
	C317.815765,165.704727 317.904663,165.356918 318.517242,164.564194 
	C319.013672,163.033157 319.510071,161.502121 320.513123,159.416031 
	C321.105865,156.311172 321.698608,153.206329 322.656586,149.648026 
	C322.678223,149.076218 322.699860,148.504410 322.976807,147.125961 
	C323.080963,145.801987 323.190369,144.478394 323.288513,143.153976 
	C326.340179,101.979111 289.030670,67.301445 247.430161,73.137154 
	C246.622559,73.388680 245.814941,73.640205 244.167068,73.790955 
	C239.750031,75.173080 235.333008,76.555214 230.248917,78.083122 
	C228.490906,79.089050 226.732910,80.094978 224.324905,80.945137 
	C223.794617,81.263275 223.264313,81.581421 222.337372,81.939362 
	C222.053497,82.039726 221.901093,82.240059 221.180573,82.756653 
	C216.798309,86.496765 212.416046,90.236885 207.981598,93.979706 
	C207.981598,93.979706 207.961426,94.026939 207.470993,94.115234 
	C207.157730,94.320419 207.026459,94.608551 206.988174,94.995384 
M152.642303,118.368973 
	C151.763596,118.026443 150.884888,117.683914 149.326126,117.152779 
	C148.862961,117.210190 148.399780,117.267601 147.504608,117.169098 
	C147.504608,117.169098 147.070099,117.317871 146.141663,117.130966 
	C139.425018,117.204330 132.708374,117.277702 125.081474,117.156929 
	C120.063919,117.235580 115.046356,117.314240 109.243500,117.182228 
	C105.300491,117.182228 101.357491,117.182228 97.170387,117.182228 
	C97.170387,120.490005 97.170387,123.283691 97.014297,126.993179 
	C97.006371,155.559692 96.974205,184.126236 96.999504,212.692719 
	C97.014946,230.127106 97.118813,247.561417 97.029396,265.923096 
	C97.029396,278.843445 97.029396,291.763763 97.029396,305.004944 
	C104.461189,305.004944 111.263771,305.015228 118.066315,305.003204 
	C151.367416,304.944244 184.668533,304.879333 218.903427,304.968781 
	C232.000717,304.980408 245.098236,305.044678 258.195190,304.984039 
	C266.130768,304.947327 274.065491,304.717255 282.519501,304.115387 
	C282.442078,302.182373 282.364624,300.249390 282.580505,297.441437 
	C282.471344,295.615417 282.362183,293.789368 282.571533,291.087433 
	C282.454468,278.301514 282.337402,265.515564 282.516937,252.419281 
	C282.346893,252.105530 282.176819,251.791763 281.133179,251.116882 
	C262.418915,251.151855 243.704620,251.186829 224.069214,251.051895 
	C200.383148,251.039673 176.697083,251.027451 152.861160,250.324127 
	C152.719391,249.877380 152.577606,249.430618 152.695755,248.081482 
	C152.611740,240.049026 152.527725,232.016571 152.698212,223.083847 
	C152.614960,207.725296 152.531723,192.366760 152.696121,176.098190 
	C152.618011,157.067963 152.539902,138.037720 152.642303,118.368973 
z"/>
<path fill="#FD611A" opacity="1.000000" stroke="none" 
	d="
M317.267883,166.386322 
	C314.503265,171.209976 311.738617,176.033630 308.515076,180.659515 
	C305.252655,179.103241 302.505341,177.589340 299.591675,176.535141 
	C299.090698,176.353836 297.881866,178.128738 296.576355,179.000000 
	C293.904968,178.575150 291.566132,178.413116 289.428253,177.671616 
	C284.746460,176.047760 280.306519,173.441635 275.517517,172.467957 
	C263.555450,170.035919 253.840988,163.465546 244.787170,156.060318 
	C234.445862,147.602051 226.116272,137.511536 219.997192,125.184692 
	C216.328110,117.793373 213.471436,110.462708 211.825348,102.563248 
	C211.235672,99.733414 211.730789,96.677536 211.730789,93.583054 
	C210.874527,93.674294 209.454147,93.825645 208.033783,93.976997 
	C212.416046,90.236885 216.798309,86.496765 221.473099,83.011017 
	C222.156677,84.504562 222.429398,85.798759 222.972717,86.967125 
	C223.496460,88.093376 224.612564,89.003571 224.929901,90.156868 
	C227.193893,98.385178 227.814407,107.490646 231.839050,114.711021 
	C238.038391,125.832832 244.131927,137.586578 255.267029,145.096848 
	C258.677002,147.396759 262.144165,149.730347 265.870239,151.419617 
	C274.850800,155.491135 283.764435,159.974350 293.154388,162.796341 
	C300.856232,165.110992 309.205566,165.271149 317.267883,166.386322 
z"/>
<path fill="#FC3070" opacity="1.000000" stroke="none" 
	d="
M152.435837,248.983871 
	C152.577606,249.430618 152.719391,249.877380 153.206238,250.953293 
	C155.703888,251.728287 157.856491,251.874115 159.969345,252.364868 
	C159.353256,253.850922 158.776886,254.992050 158.260941,256.013550 
	C159.932571,257.224396 161.479858,258.154327 162.801483,259.336548 
	C167.685150,263.704956 172.263809,268.446777 177.382370,272.512970 
	C186.305588,279.601562 195.524490,286.319611 204.666138,293.130310 
	C206.622482,294.587830 208.816940,295.721313 210.831741,297.105896 
	C213.433044,298.893463 217.278198,299.612000 216.526031,304.001251 
	C210.033035,303.999634 204.007889,303.990967 197.984894,303.615601 
	C196.638290,301.489166 195.567551,299.372467 193.874893,298.054352 
	C191.410767,296.135406 188.178696,295.162262 185.833817,293.137543 
	C176.210754,284.828552 166.831390,276.238129 157.300568,267.821228 
	C149.738327,261.142853 141.743622,254.913452 134.576050,247.841049 
	C128.184433,241.534317 122.457176,234.510986 116.821350,227.494965 
	C112.091187,221.606323 107.982826,215.221832 103.448456,209.169785 
	C102.266708,207.592484 100.522278,206.436752 98.029900,204.173538 
	C98.029900,210.108856 98.029900,214.555298 98.021675,219.469147 
	C98.018600,225.290039 98.023758,230.643509 98.020325,236.465744 
	C98.015778,245.622253 98.019829,254.309998 98.013794,263.331726 
	C97.992744,264.111053 97.981773,264.556396 97.773842,265.001038 
	C97.576881,265.000275 97.182968,264.995758 97.182968,264.995758 
	C97.118813,247.561417 97.014946,230.127106 96.999504,212.692719 
	C96.974205,184.126236 97.006371,155.559692 97.341904,126.813324 
	C97.784187,128.428116 97.898865,130.222778 98.006104,132.484009 
	C98.006432,144.301361 98.014214,155.652100 98.014580,167.471100 
	C98.004578,169.433136 97.897758,170.935333 98.017616,172.419220 
	C98.508102,178.491653 95.761185,185.358521 102.291862,189.997833 
	C102.725998,190.306244 102.659676,191.243927 102.979774,191.800598 
	C104.724205,194.834412 106.419647,197.903656 108.324738,200.835434 
	C109.751434,203.031006 111.533394,204.992294 113.043442,207.137939 
	C115.546043,210.693909 117.779785,214.453888 120.463112,217.863205 
	C122.592827,220.569153 125.145020,222.963806 127.649979,225.349304 
	C135.917114,233.222061 140.725098,244.726990 152.435837,248.983871 
z"/>
<path fill="#FD247D" opacity="1.000000" stroke="none" 
	d="
M197.982758,303.982300 
	C204.007889,303.990967 210.033035,303.999634 216.770142,304.010559 
	C217.482132,304.012756 217.970291,304.028595 217.969849,304.225586 
	C217.969421,304.422546 217.969635,304.816528 217.969635,304.816528 
	C184.668533,304.879333 151.367416,304.944244 118.066315,305.003204 
	C111.263771,305.015228 104.461189,305.004944 97.029396,305.004944 
	C97.029396,291.763763 97.029396,278.843445 97.106186,265.459412 
	C97.182968,264.995758 97.576881,265.000275 97.785728,265.469360 
	C97.995079,276.764801 98.183281,287.596008 97.902596,298.415070 
	C97.792213,302.669739 98.773697,304.274017 103.372963,304.114838 
	C113.687355,303.757874 124.022522,304.014282 134.349091,303.980560 
	C135.747284,303.975983 137.144699,303.738892 139.693817,303.502838 
	C137.741638,300.949921 136.569107,299.024078 135.026108,297.464874 
	C127.270340,289.627625 119.545532,281.751465 111.547379,274.165741 
	C107.315506,270.152100 102.549004,266.702179 98.023872,262.997742 
	C98.019829,254.309998 98.015778,245.622253 98.386131,236.471451 
	C100.170975,237.002426 101.795128,237.794891 102.955238,239.025009 
	C108.260551,244.650452 113.308418,250.522064 118.689835,256.071442 
	C125.472389,263.065704 132.366196,269.962921 139.445557,276.654938 
	C144.679749,281.602753 150.287064,286.155853 155.728470,290.884460 
	C156.717331,291.743774 157.780579,292.531219 158.685516,293.471161 
	C164.533737,299.545776 170.031845,306.248383 180.014313,304.039734 
	C181.283997,303.758789 182.666046,303.985809 184.460999,303.987000 
	C189.278229,303.991791 193.630493,303.987030 197.982758,303.982300 
z"/>
<path fill="#FD591A" opacity="1.000000" stroke="none" 
	d="
M297.000000,179.000000 
	C297.881866,178.128738 299.090698,176.353836 299.591675,176.535141 
	C302.505341,177.589340 305.252655,179.103241 308.224487,180.819519 
	C308.392761,181.177292 308.343384,181.159973 308.018921,181.235596 
	C307.462189,181.844635 307.229950,182.378052 306.997681,182.911469 
	C306.844452,183.227020 306.691254,183.542572 306.057434,184.046600 
	C305.294006,184.434006 305.120514,184.703400 305.056366,185.043243 
	C302.289703,187.684738 299.523041,190.326218 296.388214,192.637238 
	C295.238892,187.145218 292.167389,189.459702 289.768158,189.747482 
	C287.640503,188.107986 285.343964,186.921265 282.933228,186.051025 
	C276.584320,183.759140 269.750366,182.406921 263.897125,179.229630 
	C251.483826,172.491318 238.812408,166.298889 229.059402,155.140945 
	C223.006042,148.215576 217.440750,141.358627 213.484467,133.105316 
	C211.842911,129.680832 210.115570,125.884392 204.999512,127.610718 
	C204.135269,123.324074 203.787109,118.943100 197.703232,120.768578 
	C197.033722,120.969460 195.898987,119.619865 195.026062,118.617859 
	C196.039673,114.825546 197.007233,111.404747 197.974808,107.983955 
	C197.974808,107.983955 198.000000,107.997139 198.346024,107.940811 
	C199.084625,106.873535 199.477219,105.862595 199.869812,104.851662 
	C199.869812,104.851662 199.907394,104.937294 200.155197,104.798096 
	C200.579193,104.062836 200.755371,103.466782 200.931564,102.870720 
	C200.990036,102.700798 201.048508,102.530876 201.577362,102.119171 
	C202.363861,101.275269 202.679962,100.673149 202.996063,100.071030 
	C202.996063,100.071030 202.983810,100.003403 203.400040,99.995590 
	C204.444687,98.894623 205.073105,97.801460 205.701523,96.708298 
	C205.701523,96.708298 205.815033,96.802116 206.048309,96.744156 
	C206.521103,96.152466 206.760620,95.618721 207.000122,95.084984 
	C207.000122,95.084984 206.988174,94.995384 207.238190,94.890350 
	C207.744202,94.593842 207.901947,94.341057 207.961426,94.026939 
	C207.961426,94.026939 207.981598,93.979706 208.007690,93.978348 
	C209.454147,93.825645 210.874527,93.674294 211.730789,93.583054 
	C211.730789,96.677536 211.235672,99.733414 211.825348,102.563248 
	C213.471436,110.462708 216.328110,117.793373 219.997192,125.184692 
	C226.116272,137.511536 234.445862,147.602051 244.787170,156.060318 
	C253.840988,163.465546 263.555450,170.035919 275.517517,172.467957 
	C280.306519,173.441635 284.746460,176.047760 289.428253,177.671616 
	C291.566132,178.413116 293.904968,178.575150 296.608643,179.326126 
	C297.709595,180.356552 298.354614,181.060867 298.999603,181.765167 
	C299.310394,181.348221 299.621185,180.931259 299.931976,180.514313 
	C298.954651,180.009537 297.977325,179.504761 297.000000,179.000000 
z"/>
<path fill="#FC385A" opacity="1.000000" stroke="none" 
	d="
M98.013550,132.017426 
	C97.898865,130.222778 97.784187,128.428116 97.419952,126.355423 
	C97.170387,123.283691 97.170387,120.490005 97.170387,117.182228 
	C101.357491,117.182228 105.300491,117.182228 109.644760,117.701378 
	C111.442688,119.546288 112.839363,120.872047 114.383728,122.337997 
	C113.414322,122.777557 112.340950,123.264252 110.876328,123.928352 
	C114.779945,129.944839 118.597366,135.494003 122.065697,141.253372 
	C127.118309,149.643570 131.919281,158.185272 136.829376,166.661316 
	C137.077957,167.090454 137.295731,167.549561 137.609268,167.927094 
	C140.358994,171.238037 143.127228,174.533615 146.533539,178.602448 
	C147.090103,178.403275 149.049026,177.702255 151.248215,177.000504 
	C151.488495,176.999786 151.968552,176.996399 151.968552,176.996399 
	C151.968552,176.996399 152.448471,177.008209 152.448486,177.008209 
	C152.531723,192.366760 152.614960,207.725296 152.332794,223.539505 
	C151.648819,224.000305 151.330231,224.002930 151.007355,223.553543 
	C151.533569,213.864273 148.743622,205.509293 143.486465,198.123306 
	C138.900650,191.680511 133.575699,185.769073 128.762650,179.481018 
	C125.043945,174.622711 121.650665,169.516663 118.040726,164.573318 
	C115.049240,160.476883 111.701851,156.617416 108.978813,152.354828 
	C106.629807,148.677734 104.993820,144.551102 102.938293,140.678604 
	C101.381859,137.746338 99.661156,134.901291 98.013550,132.017426 
z"/>
<path fill="#FE731A" opacity="1.000000" stroke="none" 
	d="
M245.007339,73.891724 
	C245.814941,73.640205 246.622559,73.388680 248.036438,73.423241 
	C250.430298,73.814110 252.217896,73.918892 254.011856,74.394562 
	C254.561981,76.392326 255.555145,78.012268 255.580368,79.647156 
	C255.848785,97.047005 265.089600,109.821411 277.159332,120.907883 
	C280.322723,123.813591 284.605103,126.009705 288.756012,127.219322 
	C296.022614,129.336914 303.536255,130.817307 311.046783,131.787659 
	C314.234741,132.199554 317.676208,130.649551 321.295258,130.287109 
	C321.719391,135.387711 321.850739,140.192398 321.594788,145.004425 
	C318.728699,145.548935 315.289764,147.395538 313.933868,146.401337 
	C307.337433,141.564468 299.044586,145.550674 292.330750,141.519058 
	C289.768097,139.980209 285.936707,140.683411 283.124237,139.399460 
	C279.401428,137.699905 276.304810,134.642883 272.597748,132.891876 
	C262.446320,128.096939 256.449768,119.129395 250.552109,110.464401 
	C243.613785,100.270508 244.297424,87.476608 241.215118,75.734100 
	C242.624817,74.946434 243.816071,74.419075 245.007339,73.891724 
z"/>
<path fill="#FE6D1A" opacity="1.000000" stroke="none" 
	d="
M240.996689,75.994415 
	C244.297424,87.476608 243.613785,100.270508 250.552109,110.464401 
	C256.449768,119.129395 262.446320,128.096939 272.597748,132.891876 
	C276.304810,134.642883 279.401428,137.699905 283.124237,139.399460 
	C285.936707,140.683411 289.768097,139.980209 292.330750,141.519058 
	C299.044586,145.550674 307.337433,141.564468 313.933868,146.401337 
	C315.289764,147.395538 318.728699,145.548935 321.602722,145.321518 
	C322.239166,146.398392 322.480347,147.165497 322.721497,147.932602 
	C322.699860,148.504410 322.678223,149.076218 322.171204,149.989365 
	C321.134644,151.222519 320.583435,152.114334 319.619202,153.012680 
	C306.620453,155.858917 293.887726,155.438568 282.305573,150.274399 
	C272.176331,145.758041 262.793854,139.636520 254.527634,131.507309 
	C245.042419,122.179291 239.375214,111.049797 235.154297,99.095116 
	C232.845886,92.557159 232.971237,85.159897 232.393875,78.096252 
	C235.524689,77.359703 238.260681,76.677055 240.996689,75.994415 
z"/>
<path fill="#FE691A" opacity="1.000000" stroke="none" 
	d="
M231.999069,78.150146 
	C232.971237,85.159897 232.845886,92.557159 235.154297,99.095116 
	C239.375214,111.049797 245.042419,122.179291 254.527634,131.507309 
	C262.793854,139.636520 272.176331,145.758041 282.305573,150.274399 
	C293.887726,155.438568 306.620453,155.858917 319.613037,153.448639 
	C320.015381,155.909073 320.010925,157.940079 320.006470,159.971069 
	C319.510071,161.502121 319.013672,163.033157 318.030884,164.924713 
	C317.433868,165.608856 317.323242,165.932449 317.212585,166.256058 
	C317.212585,166.256058 317.251801,166.315872 317.259827,166.351105 
	C309.205566,165.271149 300.856232,165.110992 293.154388,162.796341 
	C283.764435,159.974350 274.850800,155.491135 265.870239,151.419617 
	C262.144165,149.730347 258.677002,147.396759 255.267029,145.096848 
	C244.131927,137.586578 238.038391,125.832832 231.839050,114.711021 
	C227.814407,107.490646 227.193893,98.385178 224.929901,90.156868 
	C224.612564,89.003571 223.496460,88.093376 222.972717,86.967125 
	C222.429398,85.798759 222.156677,84.504562 221.822891,82.902878 
	C221.901093,82.240059 222.053497,82.039726 222.853088,81.933868 
	C223.904160,81.652550 224.439529,81.376724 224.974899,81.100906 
	C226.732910,80.094978 228.490906,79.089050 230.852936,78.064339 
	C231.637665,78.080414 231.818359,78.115280 231.999069,78.150146 
z"/>
<path fill="#FC2E69" opacity="1.000000" stroke="none" 
	d="
M151.011597,224.003052 
	C151.330231,224.002930 151.648819,224.000305 152.205551,223.989639 
	C152.527725,232.016571 152.611740,240.049026 152.565796,248.532684 
	C140.725098,244.726990 135.917114,233.222061 127.649979,225.349304 
	C125.145020,222.963806 122.592827,220.569153 120.463112,217.863205 
	C117.779785,214.453888 115.546043,210.693909 113.043442,207.137939 
	C111.533394,204.992294 109.751434,203.031006 108.324738,200.835434 
	C106.419647,197.903656 104.724205,194.834412 102.979774,191.800598 
	C102.659676,191.243927 102.725998,190.306244 102.291862,189.997833 
	C95.761185,185.358521 98.508102,178.491653 98.017616,172.419220 
	C97.897758,170.935333 98.004578,169.433136 98.358643,167.505341 
	C100.970108,169.394104 104.547455,171.382034 105.239151,174.103409 
	C107.189346,181.776047 112.821770,186.731293 117.207275,192.573959 
	C120.334427,196.740143 124.353645,200.224411 127.675362,204.259460 
	C134.298782,212.305313 140.702927,220.531479 147.247986,228.642532 
	C147.695297,229.196854 148.561096,229.413483 149.918167,230.169067 
	C150.346329,227.754639 150.678955,225.878845 151.011597,224.003052 
z"/>
<path fill="#FE5519" opacity="1.000000" stroke="none" 
	d="
M205.000031,128.000610 
	C210.115570,125.884392 211.842911,129.680832 213.484467,133.105316 
	C217.440750,141.358627 223.006042,148.215576 229.059402,155.140945 
	C238.812408,166.298889 251.483826,172.491318 263.897125,179.229630 
	C269.750366,182.406921 276.584320,183.759140 282.933228,186.051025 
	C285.343964,186.921265 287.640503,188.107986 289.768158,189.747482 
	C292.167389,189.459702 295.238892,187.145218 296.054749,192.695984 
	C296.089417,193.085205 296.067657,193.055908 295.699158,193.043518 
	C293.887085,194.038742 292.443542,195.046341 291.000000,196.053955 
	C291.000000,196.053955 290.631317,196.165421 290.103455,196.133209 
	C289.050537,196.711655 288.525513,197.322311 288.000488,197.932953 
	C288.000458,197.932938 287.585724,198.048248 287.010498,198.032227 
	C285.954315,198.003342 285.473358,197.990479 284.776733,197.720490 
	C283.707825,198.300812 282.854553,199.138260 281.626587,199.983826 
	C280.502319,199.995392 279.752777,199.998810 278.742188,199.718002 
	C276.654510,199.288574 274.827850,199.143372 273.000000,198.620331 
	C272.589783,197.292862 271.954773,195.478912 271.804413,195.518219 
	C265.989014,197.038986 265.791626,193.683304 267.021698,188.700668 
	C263.069763,187.744064 259.445892,186.924744 255.857056,185.973129 
	C254.129990,185.515182 252.459152,184.834396 250.779953,184.208633 
	C242.889603,181.268326 238.245590,174.187378 231.858734,169.324814 
	C227.529755,166.028976 222.704834,163.088333 219.250427,159.014740 
	C214.903244,153.888351 211.775528,147.736664 208.031799,142.086914 
	C205.111801,137.680298 201.972382,133.417236 199.123505,128.966812 
	C198.508102,128.005478 198.719238,126.515053 198.471924,124.696892 
	C201.589706,125.738060 200.890945,131.529373 205.000031,128.000610 
z"/>
<path fill="#FD3950" opacity="1.000000" stroke="none" 
	d="
M151.007935,177.001221 
	C149.049026,177.702255 147.090103,178.403275 146.533539,178.602448 
	C143.127228,174.533615 140.358994,171.238037 137.609268,167.927094 
	C137.295731,167.549561 137.077957,167.090454 136.829376,166.661316 
	C131.919281,158.185272 127.118309,149.643570 122.065697,141.253372 
	C118.597366,135.494003 114.779945,129.944839 110.876328,123.928352 
	C112.340950,123.264252 113.414322,122.777557 114.383728,122.337997 
	C112.839363,120.872047 111.442688,119.546288 110.037407,117.806717 
	C115.046356,117.314240 120.063919,117.235580 125.549255,117.592987 
	C127.054977,119.227242 127.950554,120.596863 129.153702,121.596176 
	C137.731705,128.720947 142.067795,138.471527 146.385666,148.080872 
	C146.955276,147.388611 147.904617,146.234894 148.853943,145.081161 
	C149.547913,145.152817 150.241882,145.224472 150.935852,145.296127 
	C151.072678,155.858154 150.956696,166.434387 151.007935,177.001221 
z"/>
<path fill="#F8512D" opacity="1.000000" stroke="none" 
	d="
M279.003204,200.002228 
	C279.752777,199.998810 280.502319,199.995392 281.914246,199.869690 
	C283.339325,199.453140 284.102051,199.158890 284.926514,198.929916 
	C284.988281,198.995193 285.109711,199.127686 285.109711,199.127686 
	C278.344879,201.414368 271.726929,204.949112 264.789062,205.765762 
	C238.596252,208.848846 217.079666,199.405899 202.018723,177.888000 
	C186.717270,156.026550 185.671936,132.432785 197.691925,108.182831 
	C197.007233,111.404747 196.039673,114.825546 194.751633,118.871475 
	C193.628555,122.997406 192.825958,126.498207 192.016144,130.466309 
	C192.005890,134.256897 192.050476,137.581085 191.988724,140.903290 
	C191.892532,146.078659 193.668701,150.358109 196.828613,154.560135 
	C200.106140,158.918594 202.317978,164.074814 205.044113,168.854630 
	C205.576920,169.788818 206.188766,170.774353 207.008881,171.430176 
	C209.455978,173.387009 212.024689,175.191803 214.901062,177.318573 
	C216.272095,177.555084 218.378571,177.918472 220.485046,178.281845 
	C220.079422,180.347733 219.673798,182.413605 219.121460,185.226608 
	C221.267899,184.453049 222.717026,183.930801 223.820587,183.533081 
	C226.567535,185.835281 229.099167,188.085846 231.769485,190.157639 
	C234.283936,192.108505 236.944550,193.870972 240.545975,196.430695 
	C245.655441,195.654175 246.004395,195.884720 247.548599,202.085754 
	C250.934921,202.085754 254.260590,201.854568 257.534332,202.167343 
	C259.702850,202.374496 261.773346,203.458450 263.928802,203.980255 
	C269.647034,205.364471 273.941071,201.199356 279.003204,200.002228 
z"/>
<path fill="#FB3C4E" opacity="1.000000" stroke="none" 
	d="
M282.220337,252.729645 
	C282.337402,265.515564 282.454468,278.301514 282.205505,291.535583 
	C281.562653,291.996552 281.285675,292.003601 281.005005,291.598450 
	C280.708527,289.739410 280.564911,288.236481 280.095276,286.843445 
	C278.575897,282.336578 277.540100,277.698486 270.970795,277.603333 
	C268.658447,277.569824 266.361511,274.774475 264.102264,273.176941 
	C260.928528,270.932831 257.961365,268.342987 254.609924,266.415649 
	C248.840805,263.097870 242.843430,260.177063 236.941849,257.089630 
	C236.990158,256.618317 237.038467,256.146973 237.086761,255.675644 
	C240.191299,255.277435 243.295837,254.879211 246.400375,254.480988 
	C246.386810,254.119324 246.373230,253.757645 246.359665,253.395966 
	C239.237900,252.922318 232.116135,252.448669 224.994873,251.786713 
	C224.995392,251.598389 224.990341,251.221786 224.990341,251.221786 
	C243.704620,251.186829 262.418915,251.151855 281.564026,251.459000 
	C282.002045,252.126938 282.077179,252.436447 282.220337,252.729645 
z"/>
<path fill="#FB8820" opacity="1.000000" stroke="none" 
	d="
M322.849182,147.529282 
	C322.480347,147.165497 322.239166,146.398392 321.990021,145.314178 
	C321.850739,140.192398 321.719391,135.387711 321.285706,129.882141 
	C319.363953,123.884285 317.951477,118.508751 315.990082,113.341583 
	C315.451477,111.922646 313.270782,111.127022 311.843597,110.045364 
	C310.888397,111.334908 309.898254,112.600685 308.996796,113.926773 
	C308.677399,114.396629 308.574127,115.013420 308.609131,114.918137 
	C292.122131,106.343323 276.214874,97.241058 273.043274,75.793724 
	C266.940735,75.226334 260.473114,74.625008 254.005493,74.023674 
	C252.217896,73.918892 250.430298,73.814110 248.354233,73.472946 
	C289.030670,67.301445 326.340179,101.979111 323.288513,143.153976 
	C323.190369,144.478394 323.080963,145.801987 322.849182,147.529282 
z"/>
<path fill="#FB3262" opacity="1.000000" stroke="none" 
	d="
M281.008545,292.004883 
	C281.285675,292.003601 281.562653,291.996552 282.046265,291.973511 
	C282.362183,293.789368 282.471344,295.615417 282.328979,298.193512 
	C282.051819,300.821747 282.026215,302.697906 282.000610,304.574066 
	C274.065491,304.717255 266.130768,304.947327 258.195190,304.984039 
	C245.098236,305.044678 232.000717,304.980408 218.436523,304.892639 
	C217.969635,304.816528 217.969421,304.422546 218.441803,304.214661 
	C226.779236,304.006805 234.644272,304.006805 243.667068,304.006805 
	C242.245407,302.315399 241.862045,301.590515 241.262497,301.186401 
	C232.713440,295.424469 222.263763,292.411682 215.844116,283.546295 
	C215.405716,282.940857 214.357697,282.815704 213.699371,282.324799 
	C204.589249,275.531433 195.378815,268.862122 186.500122,261.777466 
	C184.685974,260.329895 184.133865,257.300720 183.446732,255.000351 
	C189.776306,254.609741 194.045425,255.999008 198.304138,261.262756 
	C205.725449,270.435455 214.676514,278.407776 226.405060,282.393494 
	C228.888763,283.237549 231.903183,285.102600 232.874832,287.294373 
	C235.141800,292.408081 238.952637,294.121979 243.935760,295.270660 
	C248.202927,296.254303 253.201767,297.292145 256.106506,300.122803 
	C259.565643,303.493683 262.853638,304.229156 267.096130,304.027893 
	C270.416107,303.870392 273.759979,303.832520 277.074005,304.043427 
	C280.174774,304.240753 281.392853,303.014343 280.990417,299.564240 
	C280.999878,296.748077 281.004211,294.376465 281.008545,292.004883 
z"/>
<path fill="#FB3C4E" opacity="1.000000" stroke="none" 
	d="
M151.248215,177.000504 
	C150.956696,166.434387 151.072678,155.858154 150.935852,145.296127 
	C150.241882,145.224472 149.547913,145.152817 148.853943,145.081161 
	C147.904617,146.234894 146.955276,147.388611 146.385666,148.080872 
	C142.067795,138.471527 137.731705,128.720947 129.153702,121.596176 
	C127.950554,120.596863 127.054977,119.227242 126.004379,117.690048 
	C132.708374,117.277702 139.425018,117.204330 146.688782,117.343277 
	C147.235886,117.555588 147.632462,117.615707 147.632462,117.615707 
	C147.632462,117.615707 147.936615,117.325020 147.936615,117.325012 
	C148.399780,117.267601 148.862961,117.210190 149.715286,117.527832 
	C150.890228,118.271080 151.676010,118.639282 152.461792,119.007484 
	C152.539902,138.037720 152.618011,157.067963 152.572296,176.553192 
	C152.448471,177.008209 151.968552,176.996399 151.968552,176.996399 
	C151.968552,176.996399 151.488495,176.999786 151.248215,177.000504 
z"/>
<path fill="#FB3262" opacity="1.000000" stroke="none" 
	d="
M224.529785,251.136841 
	C224.990341,251.221786 224.995392,251.598389 224.526978,251.794800 
	C217.035736,252.004120 210.012878,252.016998 202.522522,252.020248 
	C196.638702,252.008652 191.222000,252.045212 185.806351,251.985779 
	C183.641174,251.962021 181.751938,252.074402 181.588226,254.999954 
	C176.011795,252.677719 170.696564,251.246506 164.944290,251.970657 
	C163.322845,252.174759 161.655411,252.013596 160.009079,252.019958 
	C157.856491,251.874115 155.703888,251.728287 153.281158,251.298843 
	C176.697083,251.027451 200.383148,251.039673 224.529785,251.136841 
z"/>
<path fill="#FB8820" opacity="1.000000" stroke="none" 
	d="
M232.393875,78.096252 
	C231.818359,78.115280 231.637665,78.080414 231.186462,77.991447 
	C235.333008,76.555214 239.750031,75.173080 244.587204,73.841339 
	C243.816071,74.419075 242.624817,74.946434 241.215118,75.734100 
	C238.260681,76.677055 235.524689,77.359703 232.393875,78.096252 
z"/>
<path fill="#FB8820" opacity="1.000000" stroke="none" 
	d="
M320.259796,159.693542 
	C320.010925,157.940079 320.015381,155.909073 320.026062,153.442108 
	C320.583435,152.114334 321.134644,151.222519 321.988586,150.216095 
	C321.698608,153.206329 321.105865,156.311172 320.259796,159.693542 
z"/>
<path fill="#FD591A" opacity="1.000000" stroke="none" 
	d="
M291.339111,196.160721 
	C292.443542,195.046341 293.887085,194.038742 295.705078,193.051636 
	C294.612427,194.137238 293.145355,195.202362 291.339111,196.160721 
z"/>
<path fill="#F8512D" opacity="1.000000" stroke="none" 
	d="
M205.408661,96.816681 
	C205.073105,97.801460 204.444687,98.894623 203.433502,99.987793 
	C203.739090,98.966888 204.427444,97.945976 205.408661,96.816681 
z"/>
<path fill="#FD3959" opacity="1.000000" stroke="none" 
	d="
M282.260071,304.344727 
	C282.026215,302.697906 282.051819,300.821747 282.182312,298.630981 
	C282.364624,300.249390 282.442078,302.182373 282.260071,304.344727 
z"/>
<path fill="#FC385A" opacity="1.000000" stroke="none" 
	d="
M152.552048,118.688232 
	C151.676010,118.639282 150.890228,118.271080 150.055313,117.622131 
	C150.884888,117.683914 151.763596,118.026443 152.552048,118.688232 
z"/>
<path fill="#F8512D" opacity="1.000000" stroke="none" 
	d="
M199.584534,104.994675 
	C199.477219,105.862595 199.084625,106.873535 198.335358,107.929962 
	C198.418869,107.029533 198.859070,106.083611 199.584534,104.994675 
z"/>
<path fill="#FD591A" opacity="1.000000" stroke="none" 
	d="
M288.335632,198.022369 
	C288.525513,197.322311 289.050537,196.711655 289.914032,196.098572 
	C289.725250,196.768021 289.198029,197.439911 288.335632,198.022369 
z"/>
<path fill="#F8512D" opacity="1.000000" stroke="none" 
	d="
M202.754669,100.165733 
	C202.679962,100.673149 202.363861,101.275269 201.782928,101.944809 
	C201.849808,101.428299 202.181534,100.844368 202.754669,100.165733 
z"/>
<path fill="#F8512D" opacity="1.000000" stroke="none" 
	d="
M284.992371,197.977600 
	C285.473358,197.990479 285.954315,198.003342 286.795441,198.039825 
	C286.628326,198.419174 286.101074,198.774872 285.341766,199.129135 
	C285.109711,199.127686 284.988281,198.995193 284.971344,198.710358 
	C284.954407,198.425537 284.992371,197.977615 284.992371,197.977600 
z"/>
<path fill="#FD611A" opacity="1.000000" stroke="none" 
	d="
M307.272644,182.809143 
	C307.229950,182.378052 307.462189,181.844635 307.993103,181.240067 
	C308.043701,181.681549 307.795624,182.194183 307.272644,182.809143 
z"/>
<path fill="#FD3959" opacity="1.000000" stroke="none" 
	d="
M282.368652,252.574463 
	C282.077179,252.436447 282.002045,252.126938 282.000824,251.639557 
	C282.176819,251.791763 282.346893,252.105530 282.368652,252.574463 
z"/>
<path fill="#FD611A" opacity="1.000000" stroke="none" 
	d="
M224.649902,81.023018 
	C224.439529,81.376724 223.904160,81.652550 223.051407,81.913971 
	C223.264313,81.581421 223.794617,81.263275 224.649902,81.023018 
z"/>
<path fill="#F8512D" opacity="1.000000" stroke="none" 
	d="
M206.726669,95.185417 
	C206.760620,95.618721 206.521103,96.152466 205.974945,96.737976 
	C205.929932,96.288445 206.191574,95.787148 206.726669,95.185417 
z"/>
<path fill="#F8512D" opacity="1.000000" stroke="none" 
	d="
M200.631119,102.991684 
	C200.755371,103.466782 200.579193,104.062836 200.108627,104.793892 
	C199.986389,104.323479 200.158539,103.718063 200.631119,102.991684 
z"/>
<path fill="#FD611A" opacity="1.000000" stroke="none" 
	d="
M305.308899,184.981689 
	C305.120514,184.703400 305.294006,184.434006 305.802673,184.139847 
	C305.872833,184.336441 305.717133,184.628281 305.308899,184.981689 
z"/>
<path fill="#FD611A" opacity="1.000000" stroke="none" 
	d="
M317.469727,166.154297 
	C317.323242,165.932449 317.433868,165.608856 317.769043,165.147186 
	C317.904663,165.356918 317.815765,165.704727 317.469727,166.154297 
z"/>
<path fill="#F8512D" opacity="1.000000" stroke="none" 
	d="
M207.716217,94.071091 
	C207.901947,94.341057 207.744202,94.593842 207.282684,94.882469 
	C207.026459,94.608551 207.157730,94.320419 207.716217,94.071091 
z"/>
<path fill="#FC385A" opacity="1.000000" stroke="none" 
	d="
M147.720612,117.247055 
	C147.936615,117.325020 147.632462,117.615707 147.632462,117.615707 
	C147.632462,117.615707 147.235886,117.555588 147.152985,117.436729 
	C147.070099,117.317871 147.504608,117.169098 147.720612,117.247055 
z"/>
<path fill="#FD3161" opacity="1.000000" stroke="none" 
	d="
M151.007355,223.553543 
	C150.678955,225.878845 150.346329,227.754639 149.918167,230.169067 
	C148.561096,229.413483 147.695297,229.196854 147.247986,228.642532 
	C140.702927,220.531479 134.298782,212.305313 127.675362,204.259460 
	C124.353645,200.224411 120.334427,196.740143 117.207275,192.573959 
	C112.821770,186.731293 107.189346,181.776047 105.239151,174.103409 
	C104.547455,171.382034 100.970108,169.394104 98.366051,167.037109 
	C98.014214,155.652100 98.006432,144.301361 98.006104,132.484009 
	C99.661156,134.901291 101.381859,137.746338 102.938293,140.678604 
	C104.993820,144.551102 106.629807,148.677734 108.978813,152.354828 
	C111.701851,156.617416 115.049240,160.476883 118.040726,164.573318 
	C121.650665,169.516663 125.043945,174.622711 128.762650,179.481018 
	C133.575699,185.769073 138.900650,191.680511 143.486465,198.123306 
	C148.743622,205.509293 151.533569,213.864273 151.007355,223.553543 
z"/>
<path fill="#FE2776" opacity="1.000000" stroke="none" 
	d="
M183.996048,303.977478 
	C182.666046,303.985809 181.283997,303.758789 180.014313,304.039734 
	C170.031845,306.248383 164.533737,299.545776 158.685516,293.471161 
	C157.780579,292.531219 156.717331,291.743774 155.728470,290.884460 
	C150.287064,286.155853 144.679749,281.602753 139.445557,276.654938 
	C132.366196,269.962921 125.472389,263.065704 118.689835,256.071442 
	C113.308418,250.522064 108.260551,244.650452 102.955238,239.025009 
	C101.795128,237.794891 100.170975,237.002426 98.394730,236.002686 
	C98.023758,230.643509 98.018600,225.290039 98.374504,219.505341 
	C101.843170,222.558578 104.725571,226.280060 108.098587,229.485229 
	C120.650093,241.412094 130.427994,255.946304 144.142227,266.835022 
	C155.151245,275.575897 165.507187,285.153259 175.952682,294.581268 
	C178.987991,297.320923 181.334045,300.824219 183.996048,303.977478 
z"/>
<path fill="#FD2F67" opacity="1.000000" stroke="none" 
	d="
M159.969345,252.364899 
	C161.655411,252.013596 163.322845,252.174759 164.944290,251.970657 
	C170.696564,251.246506 176.011795,252.677719 181.838379,255.000061 
	C182.666458,255.000366 182.833237,255.000488 183.000000,255.000610 
	C184.133865,257.300720 184.685974,260.329895 186.500122,261.777466 
	C195.378815,268.862122 204.589249,275.531433 213.699371,282.324799 
	C214.357697,282.815704 215.405716,282.940857 215.844116,283.546295 
	C222.263763,292.411682 232.713440,295.424469 241.262497,301.186401 
	C241.862045,301.590515 242.245407,302.315399 243.667068,304.006805 
	C234.644272,304.006805 226.779236,304.006805 218.442245,304.017700 
	C217.970291,304.028595 217.482132,304.012756 217.238007,304.003479 
	C217.278198,299.612000 213.433044,298.893463 210.831741,297.105896 
	C208.816940,295.721313 206.622482,294.587830 204.666138,293.130310 
	C195.524490,286.319611 186.305588,279.601562 177.382370,272.512970 
	C172.263809,268.446777 167.685150,263.704956 162.801483,259.336548 
	C161.479858,258.154327 159.932571,257.224396 158.260941,256.013550 
	C158.776886,254.992050 159.353256,253.850922 159.969345,252.364899 
z"/>
<path fill="#FF2972" opacity="1.000000" stroke="none" 
	d="
M184.460999,303.987000 
	C181.334045,300.824219 178.987991,297.320923 175.952682,294.581268 
	C165.507187,285.153259 155.151245,275.575897 144.142227,266.835022 
	C130.427994,255.946304 120.650093,241.412094 108.098587,229.485229 
	C104.725571,226.280060 101.843170,222.558578 98.382729,219.037918 
	C98.029900,214.555298 98.029900,210.108856 98.029900,204.173538 
	C100.522278,206.436752 102.266708,207.592484 103.448456,209.169785 
	C107.982826,215.221832 112.091187,221.606323 116.821350,227.494965 
	C122.457176,234.510986 128.184433,241.534317 134.576050,247.841049 
	C141.743622,254.913452 149.738327,261.142853 157.300568,267.821228 
	C166.831390,276.238129 176.210754,284.828552 185.833817,293.137543 
	C188.178696,295.162262 191.410767,296.135406 193.874893,298.054352 
	C195.567551,299.372467 196.638290,301.489166 197.984894,303.615601 
	C193.630493,303.987030 189.278229,303.991791 184.460999,303.987000 
z"/>
<path fill="#FD1F87" opacity="1.000000" stroke="none" 
	d="
M98.013794,263.331726 
	C102.549004,266.702179 107.315506,270.152100 111.547379,274.165741 
	C119.545532,281.751465 127.270340,289.627625 135.026108,297.464874 
	C136.569107,299.024078 137.741638,300.949921 139.693817,303.502838 
	C137.144699,303.738892 135.747284,303.975983 134.349091,303.980560 
	C124.022522,304.014282 113.687355,303.757874 103.372963,304.114838 
	C98.773697,304.274017 97.792213,302.669739 97.902596,298.415070 
	C98.183281,287.596008 97.995079,276.764801 97.982689,265.470093 
	C97.981773,264.556396 97.992744,264.111053 98.013794,263.331726 
z"/>
<path fill="#FE501B" opacity="1.000000" stroke="none" 
	d="
M192.023346,129.999008 
	C192.825958,126.498207 193.628555,122.997406 194.705597,119.242996 
	C195.898987,119.619865 197.033722,120.969460 197.703232,120.768578 
	C203.787109,118.943100 204.135269,123.324074 204.999512,127.610718 
	C200.890945,131.529373 201.589706,125.738060 198.471924,124.696892 
	C198.719238,126.515053 198.508102,128.005478 199.123505,128.966812 
	C201.972382,133.417236 205.111801,137.680298 208.031799,142.086914 
	C211.775528,147.736664 214.903244,153.888351 219.250427,159.014740 
	C222.704834,163.088333 227.529755,166.028976 231.858734,169.324814 
	C238.245590,174.187378 242.889603,181.268326 250.779953,184.208633 
	C252.459152,184.834396 254.129990,185.515182 255.857056,185.973129 
	C259.445892,186.924744 263.069763,187.744064 267.021698,188.700668 
	C265.791626,193.683304 265.989014,197.038986 271.804413,195.518219 
	C271.954773,195.478912 272.589783,197.292862 272.543579,198.620819 
	C265.863861,198.336670 259.639374,197.674194 253.414871,197.011703 
	C253.466522,196.595627 253.518173,196.179550 253.569824,195.763474 
	C254.580154,195.175110 255.590500,194.586746 257.011383,193.759308 
	C249.329926,189.871841 242.210526,186.270660 235.095184,182.661469 
	C234.800949,182.512207 234.479599,182.340149 234.280243,182.091171 
	C226.072296,171.840469 213.320099,165.939148 207.132019,153.742462 
	C206.771759,153.032379 205.865891,152.610565 205.454681,151.912735 
	C204.221939,149.820740 203.211243,147.594437 201.928635,145.535965 
	C198.680786,140.323380 195.331818,135.173813 192.023346,129.999008 
z"/>
<path fill="#FD611A" opacity="1.000000" stroke="none" 
	d="
M297.032288,179.326126 
	C297.977325,179.504761 298.954651,180.009537 299.931976,180.514313 
	C299.621185,180.931259 299.310394,181.348221 298.999603,181.765167 
	C298.354614,181.060867 297.709595,180.356552 297.032288,179.326126 
z"/>
<path fill="#FD7C1A" opacity="1.000000" stroke="none" 
	d="
M254.011856,74.394562 
	C260.473114,74.625008 266.940735,75.226334 273.043274,75.793724 
	C276.214874,97.241058 292.122131,106.343323 308.609131,114.918137 
	C308.574127,115.013420 308.677399,114.396629 308.996796,113.926773 
	C309.898254,112.600685 310.888397,111.334908 311.843597,110.045364 
	C313.270782,111.127022 315.451477,111.922646 315.990082,113.341583 
	C317.951477,118.508751 319.363953,123.884285 320.992889,129.586227 
	C317.676208,130.649551 314.234741,132.199554 311.046783,131.787659 
	C303.536255,130.817307 296.022614,129.336914 288.756012,127.219322 
	C284.605103,126.009705 280.322723,123.813591 277.159332,120.907883 
	C265.089600,109.821411 255.848785,97.047005 255.580368,79.647156 
	C255.555145,78.012268 254.561981,76.392326 254.011856,74.394562 
z"/>
<path fill="#FE4E1F" opacity="1.000000" stroke="none" 
	d="
M192.016144,130.466309 
	C195.331818,135.173813 198.680786,140.323380 201.928635,145.535965 
	C203.211243,147.594437 204.221939,149.820740 205.454681,151.912735 
	C205.865891,152.610565 206.771759,153.032379 207.132019,153.742462 
	C213.320099,165.939148 226.072296,171.840469 234.280243,182.091171 
	C234.479599,182.340149 234.800949,182.512207 235.095184,182.661469 
	C242.210526,186.270660 249.329926,189.871841 257.011383,193.759308 
	C255.590500,194.586746 254.580154,195.175110 253.569824,195.763474 
	C253.518173,196.179550 253.466522,196.595627 253.414871,197.011703 
	C259.639374,197.674194 265.863861,198.336670 272.544800,198.998657 
	C274.827850,199.143372 276.654510,199.288574 278.742188,199.718002 
	C273.941071,201.199356 269.647034,205.364471 263.928802,203.980255 
	C261.773346,203.458450 259.702850,202.374496 257.534332,202.167343 
	C254.260590,201.854568 250.934921,202.085754 247.548599,202.085754 
	C246.004395,195.884720 245.655441,195.654175 240.545975,196.430695 
	C236.944550,193.870972 234.283936,192.108505 231.769485,190.157639 
	C229.099167,188.085846 226.567535,185.835281 223.820587,183.533081 
	C222.717026,183.930801 221.267899,184.453049 219.121460,185.226608 
	C219.673798,182.413605 220.079422,180.347733 220.485046,178.281845 
	C218.378571,177.918472 216.272095,177.555084 214.901062,177.318573 
	C212.024689,175.191803 209.455978,173.387009 207.008881,171.430176 
	C206.188766,170.774353 205.576920,169.788818 205.044113,168.854630 
	C202.317978,164.074814 200.106140,158.918594 196.828613,154.560135 
	C193.668701,150.358109 191.892532,146.078659 191.988724,140.903290 
	C192.050476,137.581085 192.005890,134.256897 192.016144,130.466309 
z"/>
<path fill="#FE4E1F" opacity="1.000000" stroke="none" 
	d="
M284.776733,197.720490 
	C284.992371,197.977615 284.954407,198.425537 284.909607,198.645081 
	C284.102051,199.158890 283.339325,199.453140 282.288940,199.861542 
	C282.854553,199.138260 283.707825,198.300812 284.776733,197.720490 
z"/>
<path fill="#FD3959" opacity="1.000000" stroke="none" 
	d="
M202.990036,252.029907 
	C210.012878,252.016998 217.035736,252.004120 224.526474,251.983124 
	C232.116135,252.448669 239.237900,252.922318 246.359665,253.395966 
	C246.373230,253.757645 246.386810,254.119324 246.400375,254.480988 
	C243.295837,254.879211 240.191299,255.277435 237.086761,255.675644 
	C237.038467,256.146973 236.990158,256.618317 236.941849,257.089630 
	C242.843430,260.177063 248.840805,263.097870 254.609924,266.415649 
	C257.961365,268.342987 260.928528,270.932831 264.102264,273.176941 
	C266.361511,274.774475 268.658447,277.569824 270.970795,277.603333 
	C277.540100,277.698486 278.575897,282.336578 280.095276,286.843445 
	C280.564911,288.236481 280.708527,289.739410 281.005005,291.598450 
	C281.004211,294.376465 280.999878,296.748077 280.627686,299.516998 
	C277.674591,298.710358 275.065155,297.555420 272.508636,296.293243 
	C264.742981,292.459259 256.849213,288.851349 249.285263,284.651215 
	C241.293945,280.213776 233.627304,275.192078 225.806915,270.445251 
	C225.394272,270.194763 224.823425,270.207275 224.406311,269.961456 
	C222.717056,268.965942 220.780930,268.192719 219.439987,266.838348 
	C214.718887,262.070038 210.965729,256.190216 203.959595,254.171646 
	C203.471252,254.030945 203.305695,252.769943 202.990036,252.029907 
z"/>
<path fill="#FE325D" opacity="1.000000" stroke="none" 
	d="
M202.522522,252.020264 
	C203.305695,252.769943 203.471252,254.030945 203.959595,254.171646 
	C210.965729,256.190216 214.718887,262.070038 219.439987,266.838348 
	C220.780930,268.192719 222.717056,268.965942 224.406311,269.961456 
	C224.823425,270.207275 225.394272,270.194763 225.806915,270.445251 
	C233.627304,275.192078 241.293945,280.213776 249.285263,284.651215 
	C256.849213,288.851349 264.742981,292.459259 272.508636,296.293243 
	C275.065155,297.555420 277.674591,298.710358 280.622559,299.961578 
	C281.392853,303.014343 280.174774,304.240753 277.074005,304.043427 
	C273.759979,303.832520 270.416107,303.870392 267.096130,304.027893 
	C262.853638,304.229156 259.565643,303.493683 256.106506,300.122803 
	C253.201767,297.292145 248.202927,296.254303 243.935760,295.270660 
	C238.952637,294.121979 235.141800,292.408081 232.874832,287.294373 
	C231.903183,285.102600 228.888763,283.237549 226.405060,282.393494 
	C214.676514,278.407776 205.725449,270.435455 198.304138,261.262756 
	C194.045425,255.999008 189.776306,254.609741 183.446732,255.000351 
	C182.833237,255.000488 182.666458,255.000366 182.249542,255.000122 
	C181.751938,252.074402 183.641174,251.962021 185.806351,251.985779 
	C191.222000,252.045212 196.638702,252.008652 202.522522,252.020264 
z"/>
</svg>